<svg role="img" viewBox="0 0 24 24" xmlns="http://www.w3.org/2000/svg">
  <title>Spotify</title>
  <path d="M12 0C5.373 0 0 5.373 0 12c0 6.628 5.373 12 12 12s12-5.372 12-12c0-6.627-5.373-12-12-12zm5.487 17.297a.748.748 0 0 1-1.03.248c-2.824-1.729-6.385-2.119-10.573-1.157a.748.748 0 0 1-.33-1.457c4.572-1.037 8.527-.588 11.646 1.345.353.218.464.682.248 1.021zm1.471-3.269a.935.935 0 0 1-1.29.31c-3.236-1.99-8.174-2.568-11.983-1.405a.935.935 0 0 1-1.146-.65.936.936 0 0 1 .65-1.146c4.334-1.324 9.802-.685 13.489 1.54a.935.935 0 0 1 .28 1.351zm.127-3.455c-3.79-2.253-10.048-2.463-13.646-1.344a1.122 1.122 0 1 1-.668-2.144c4.15-1.293 11.195-1.048 15.543 1.56a1.122 1.122 0 0 1-1.229 1.928z"/>
</svg>
